<svg width="20" height="21" viewBox="0 0 20 21" fill="none" xmlns="http://www.w3.org/2000/svg">
<path d="M15.7991 3.61523L16.3908 4.82357C16.4658 4.97357 16.6074 5.07357 16.7658 5.09857L18.0991 5.29023C18.5074 5.34857 18.6741 5.8569 18.3741 6.14023L17.4074 7.0819C17.2908 7.19857 17.2324 7.36523 17.2658 7.52357L17.4908 8.84857C17.5574 9.2569 17.1324 9.56523 16.7658 9.37357L15.5741 8.74857C15.4324 8.67357 15.2574 8.67357 15.1074 8.74857L13.9158 9.37357C13.5491 9.56523 13.1241 9.2569 13.1908 8.84857L13.4158 7.52357C13.4408 7.36523 13.3908 7.19857 13.2741 7.0819L12.3074 6.14023C12.0074 5.84857 12.1741 5.34857 12.5824 5.29023L13.9158 5.09857C14.0824 5.07357 14.2158 4.97357 14.2908 4.82357L14.8824 3.61523C15.0658 3.24023 15.5991 3.24023 15.7824 3.61523H15.7991Z" stroke="black" stroke-width="1.5" stroke-linecap="round" stroke-linejoin="round"/>
<path d="M18.4736 11.3984V14.3984C18.4736 16.0568 17.132 17.3984 15.4736 17.3984H4.47363C2.8153 17.3984 1.47363 16.0568 1.47363 14.3984V6.39844C1.47363 4.7401 2.8153 3.39844 4.47363 3.39844H9.97363" stroke="black" stroke-width="1.5" stroke-linecap="round" stroke-linejoin="round"/>
<path d="M1.47363 7.39844H9.97363" stroke="black" stroke-width="1.5" stroke-linecap="round" stroke-linejoin="round"/>
<path d="M4.97363 14.0649H6.47363" stroke="black" stroke-width="1.5" stroke-linecap="round" stroke-linejoin="round"/>
<path d="M8.97363 14.0649H11.9736" stroke="black" stroke-width="1.5" stroke-linecap="round" stroke-linejoin="round"/>
</svg>
